<svg width="102" height="20" viewBox="0 0 102 20" fill="none" xmlns="http://www.w3.org/2000/svg">
<path d="M2.92273 13.204C2.34673 13.204 1.89873 13.084 1.57873 12.844C1.25873 12.604 1.07073 12.252 1.01473 11.788C0.966735 11.324 1.05073 10.752 1.26673 10.072L3.64273 2.728C3.74673 2.416 3.79073 2.188 3.77473 2.044C3.76673 1.9 3.67473 1.828 3.49873 1.828C3.37073 1.828 3.22673 1.884 3.06673 1.996C2.91473 2.1 2.74273 2.26 2.55073 2.476C2.36673 2.692 2.15073 2.972 1.90273 3.316C1.77473 3.5 1.64673 3.612 1.51873 3.652C1.39873 3.684 1.26273 3.656 1.11073 3.568C0.990735 3.496 0.918734 3.408 0.894734 3.304C0.870735 3.192 0.910735 3.068 1.01473 2.932C1.42273 2.348 1.79473 1.904 2.13073 1.6C2.47473 1.296 2.78273 1.092 3.05473 0.987999C3.32673 0.875999 3.57073 0.819999 3.78673 0.819999C4.29073 0.819999 4.62273 0.983999 4.78273 1.312C4.94273 1.64 4.91873 2.124 4.71073 2.764L2.34673 10.036C2.19473 10.5 2.12273 10.892 2.13073 11.212C2.13873 11.532 2.23073 11.772 2.40673 11.932C2.58273 12.092 2.85473 12.172 3.22273 12.172C3.58273 12.172 3.96273 12.072 4.36273 11.872C4.76273 11.664 5.16273 11.376 5.56273 11.008C5.96273 10.632 6.35073 10.188 6.72673 9.676C7.10273 9.164 7.45873 8.604 7.79473 7.996C8.13873 7.38 8.44673 6.728 8.71873 6.04L8.49073 7.888C8.16273 8.656 7.78273 9.364 7.35073 10.012C6.92673 10.66 6.47073 11.224 5.98273 11.704C5.49474 12.184 4.99073 12.556 4.47073 12.82C3.95073 13.076 3.43473 13.204 2.92273 13.204ZM8.39473 13.204C8.05873 13.204 7.77873 13.128 7.55473 12.976C7.33873 12.824 7.18273 12.604 7.08674 12.316C6.99873 12.028 6.97473 11.676 7.01473 11.26C7.05473 10.836 7.16273 10.356 7.33873 9.82L10.1587 1.168C10.1987 1.056 10.2667 0.972 10.3627 0.915999C10.4587 0.859999 10.5947 0.831999 10.7707 0.831999C10.9547 0.831999 11.0867 0.859999 11.1667 0.915999C11.2547 0.972 11.2787 1.064 11.2387 1.192L8.35874 9.952C8.22273 10.344 8.12673 10.688 8.07073 10.984C8.02273 11.28 8.00673 11.528 8.02274 11.728C8.04673 11.92 8.10673 12.064 8.20273 12.16C8.30674 12.256 8.44673 12.304 8.62273 12.304C8.77473 12.304 8.87474 12.352 8.92273 12.448C8.97873 12.536 8.99073 12.64 8.95874 12.76C8.92674 12.872 8.86274 12.972 8.76673 13.06C8.67073 13.156 8.54673 13.204 8.39473 13.204ZM8.4282 13.204C8.3002 13.204 8.2202 13.156 8.1882 13.06C8.1482 12.972 8.1482 12.872 8.1882 12.76C8.2202 12.64 8.2762 12.536 8.3562 12.448C8.4362 12.352 8.5242 12.304 8.6202 12.304C8.7642 12.304 8.9202 12.248 9.0882 12.136C9.2482 12.024 9.4162 11.86 9.5922 11.644C9.7602 11.428 9.9402 11.168 10.1322 10.864C10.3162 10.552 10.5082 10.2 10.7082 9.808C11.0682 9.12 11.3882 8.572 11.6682 8.164C11.9562 7.756 12.2202 7.452 12.4602 7.252C12.7002 7.052 12.9282 6.924 13.1442 6.868C13.3682 6.804 13.5922 6.772 13.8162 6.772C13.8962 6.772 13.9482 6.82 13.9722 6.916C13.9962 7.004 13.9922 7.108 13.9602 7.228C13.9282 7.34 13.8722 7.444 13.7922 7.54C13.7202 7.628 13.6242 7.672 13.5042 7.672C13.4162 7.672 13.3122 7.696 13.1922 7.744C13.0802 7.784 12.9482 7.88 12.7962 8.032C12.6522 8.176 12.4802 8.396 12.2802 8.692C12.0882 8.988 11.8642 9.384 11.6082 9.88C11.2322 10.632 10.8882 11.232 10.5762 11.68C10.2642 12.12 9.9802 12.452 9.7242 12.676C9.4682 12.892 9.2362 13.032 9.0282 13.096C8.8122 13.168 8.6122 13.204 8.4282 13.204ZM16.4562 13.204C16.1042 13.204 15.8402 13.136 15.6642 13C15.4962 12.872 15.3922 12.708 15.3522 12.508C15.3122 12.3 15.3122 12.084 15.3522 11.86C15.3922 11.628 15.4442 11.416 15.5082 11.224L16.3242 8.872C16.3962 8.664 16.4402 8.476 16.4562 8.308C16.4802 8.132 16.4522 7.992 16.3722 7.888C16.3002 7.784 16.1522 7.732 15.9282 7.732C15.6642 7.732 15.3682 7.848 15.0402 8.08C14.7202 8.312 14.3882 8.636 14.0442 9.052C13.7082 9.468 13.3722 9.964 13.0362 10.54C12.7002 11.108 12.3882 11.736 12.1002 12.424L11.9562 12.868C11.9242 12.972 11.8642 13.048 11.7762 13.096C11.6962 13.152 11.5642 13.18 11.3802 13.18C11.2522 13.18 11.1322 13.152 11.0202 13.096C10.9162 13.04 10.8882 12.936 10.9362 12.784L12.4962 7.96C12.5202 7.88 12.5162 7.812 12.4842 7.756C12.4602 7.7 12.4002 7.672 12.3042 7.672C12.2082 7.672 12.1402 7.628 12.1002 7.54C12.0682 7.444 12.0642 7.34 12.0882 7.228C12.1122 7.108 12.1682 7.004 12.2562 6.916C12.3442 6.82 12.4602 6.772 12.6042 6.772C12.9002 6.772 13.1162 6.828 13.2522 6.94C13.3962 7.044 13.4842 7.184 13.5162 7.36C13.5482 7.528 13.5482 7.708 13.5162 7.9C13.4842 8.092 13.4442 8.268 13.3962 8.428L13.1562 9.148C13.4042 8.764 13.6562 8.428 13.9122 8.14C14.1762 7.844 14.4402 7.596 14.7042 7.396C14.9682 7.188 15.2362 7.032 15.5082 6.928C15.7802 6.824 16.0522 6.772 16.3242 6.772C16.6922 6.772 16.9762 6.864 17.1762 7.048C17.3762 7.224 17.4882 7.488 17.5122 7.84C17.5362 8.192 17.4602 8.628 17.2842 9.148L16.5762 11.212C16.4322 11.628 16.3642 11.916 16.3722 12.076C16.3882 12.228 16.4922 12.304 16.6842 12.304C16.7962 12.304 16.8762 12.352 16.9242 12.448C16.9802 12.536 17.0002 12.64 16.9842 12.76C16.9762 12.872 16.9282 12.972 16.8402 13.06C16.7522 13.156 16.6242 13.204 16.4562 13.204ZM16.455 13.204C16.303 13.204 16.203 13.156 16.155 13.06C16.099 12.972 16.087 12.872 16.119 12.76C16.143 12.64 16.203 12.536 16.299 12.448C16.395 12.352 16.519 12.304 16.671 12.304C16.983 12.304 17.311 12.196 17.655 11.98C17.991 11.756 18.339 11.444 18.699 11.044C19.059 10.636 19.419 10.156 19.779 9.604C20.139 9.052 20.491 8.448 20.835 7.792C20.875 7.704 20.947 7.644 21.051 7.612C21.163 7.572 21.271 7.56 21.375 7.576C21.487 7.592 21.567 7.632 21.615 7.696C21.671 7.76 21.667 7.852 21.603 7.972C21.187 8.732 20.783 9.432 20.391 10.072C19.999 10.712 19.603 11.268 19.203 11.74C18.803 12.204 18.379 12.564 17.931 12.82C17.483 13.076 16.991 13.204 16.455 13.204ZM23.259 13.204C22.907 13.204 22.647 13.14 22.479 13.012C22.311 12.884 22.203 12.72 22.155 12.52C22.107 12.32 22.099 12.116 22.131 11.908C22.171 11.692 22.219 11.504 22.275 11.344C22.307 11.248 22.367 11.092 22.455 10.876C22.543 10.66 22.643 10.416 22.755 10.144C22.867 9.864 22.975 9.58 23.079 9.292C23.191 9.004 23.283 8.74 23.355 8.5C23.419 8.26 23.431 8.096 23.391 8.008C23.359 7.912 23.259 7.864 23.091 7.864C22.907 7.864 22.711 7.904 22.503 7.984C22.295 8.056 22.079 8.132 21.855 8.212C21.631 8.284 21.395 8.32 21.147 8.32C21.003 8.32 20.879 8.26 20.775 8.14C20.671 8.02 20.587 7.868 20.523 7.684C20.467 7.492 20.439 7.292 20.439 7.084C20.439 6.916 20.467 6.76 20.523 6.616C20.579 6.464 20.667 6.34 20.787 6.244C20.915 6.148 21.075 6.1 21.267 6.1C21.427 6.1 21.555 6.152 21.651 6.256C21.747 6.36 21.795 6.492 21.795 6.652C21.795 6.756 21.779 6.872 21.747 7C21.723 7.12 21.667 7.244 21.579 7.372C21.651 7.372 21.755 7.348 21.891 7.3C22.035 7.244 22.199 7.18 22.383 7.108C22.575 7.036 22.775 6.976 22.983 6.928C23.199 6.872 23.411 6.844 23.619 6.844C23.867 6.844 24.063 6.904 24.207 7.024C24.359 7.144 24.451 7.328 24.483 7.576C24.515 7.816 24.479 8.132 24.375 8.524C24.319 8.748 24.235 9.008 24.123 9.304C24.019 9.592 23.907 9.884 23.787 10.18C23.675 10.468 23.571 10.732 23.475 10.972C23.387 11.204 23.327 11.376 23.295 11.488C23.223 11.728 23.191 11.924 23.199 12.076C23.207 12.228 23.303 12.304 23.487 12.304C23.599 12.304 23.679 12.352 23.727 12.448C23.783 12.536 23.803 12.64 23.787 12.76C23.779 12.872 23.731 12.972 23.643 13.06C23.555 13.156 23.427 13.204 23.259 13.204ZM23.2636 13.204C23.1516 13.204 23.0676 13.156 23.0116 13.06C22.9556 12.972 22.9356 12.872 22.9516 12.76C22.9596 12.64 23.0076 12.536 23.0956 12.448C23.1836 12.352 23.3116 12.304 23.4796 12.304C23.6716 12.304 23.8916 12.208 24.1396 12.016C24.3796 11.824 24.6636 11.524 24.9916 11.116C25.3196 10.7 25.7076 10.16 26.1556 9.496C26.6036 8.824 27.1276 8.012 27.7276 7.06C27.7996 6.948 27.8916 6.9 28.0036 6.916C28.1236 6.932 28.2196 6.984 28.2916 7.072C28.3636 7.16 28.3676 7.256 28.3036 7.36C27.6236 8.512 27.0356 9.468 26.5396 10.228C26.0516 10.98 25.6236 11.576 25.2556 12.016C24.8876 12.448 24.5476 12.756 24.2356 12.94C23.9156 13.116 23.5916 13.204 23.2636 13.204ZM27.2353 13.204C26.8833 13.204 26.6193 13.14 26.4433 13.012C26.2753 12.884 26.1713 12.72 26.1313 12.52C26.0913 12.312 26.0913 12.096 26.1313 11.872C26.1713 11.64 26.2233 11.424 26.2873 11.224L27.6073 7.204C27.6633 7.044 27.7273 6.94 27.7993 6.892C27.8793 6.844 27.9953 6.82 28.1473 6.82C28.3953 6.82 28.5513 6.86 28.6153 6.94C28.6873 7.012 28.6953 7.128 28.6393 7.288L27.3553 11.212C27.2113 11.636 27.1433 11.924 27.1513 12.076C27.1673 12.228 27.2673 12.304 27.4513 12.304C27.5633 12.304 27.6473 12.352 27.7033 12.448C27.7593 12.536 27.7793 12.64 27.7633 12.76C27.7553 12.872 27.7073 12.972 27.6193 13.06C27.5313 13.156 27.4033 13.204 27.2353 13.204ZM28.8913 4.972C28.7313 4.972 28.5953 4.92 28.4833 4.816C28.3713 4.712 28.3153 4.56 28.3153 4.36C28.3153 4.144 28.3833 3.94 28.5193 3.748C28.6633 3.556 28.8833 3.46 29.1793 3.46C29.3473 3.46 29.4873 3.512 29.5993 3.616C29.7113 3.712 29.7673 3.864 29.7673 4.072C29.7673 4.288 29.6953 4.492 29.5513 4.684C29.4153 4.876 29.1953 4.972 28.8913 4.972ZM27.1776 13.204C27.0656 13.204 26.9816 13.156 26.9256 13.06C26.8696 12.972 26.8496 12.872 26.8656 12.76C26.8736 12.64 26.9216 12.536 27.0096 12.448C27.0976 12.352 27.2256 12.304 27.3936 12.304C27.5856 12.304 27.8056 12.208 28.0536 12.016C28.2936 11.824 28.5776 11.524 28.9056 11.116C29.2336 10.7 29.6216 10.16 30.0696 9.496C30.5176 8.824 31.0416 8.012 31.6416 7.06C31.7136 6.948 31.8056 6.9 31.9176 6.916C32.0376 6.932 32.1336 6.984 32.2056 7.072C32.2776 7.16 32.2816 7.256 32.2176 7.36C31.5376 8.512 30.9496 9.468 30.4536 10.228C29.9656 10.98 29.5376 11.576 29.1696 12.016C28.8016 12.448 28.4616 12.756 28.1496 12.94C27.8296 13.116 27.5056 13.204 27.1776 13.204ZM34.7736 13.204C34.5656 13.204 34.3776 13.192 34.2096 13.168C34.0496 13.144 33.8936 13.12 33.7416 13.096C33.5896 13.08 33.4256 13.072 33.2496 13.072C33.0816 13.08 32.8816 13.116 32.6496 13.18L32.7096 12.76C32.8776 12.688 33.0656 12.624 33.2736 12.568C33.4896 12.512 33.7056 12.464 33.9216 12.424C34.1376 12.384 34.3376 12.356 34.5216 12.34C34.7136 12.316 34.8736 12.304 35.0016 12.304C35.0736 12.304 35.1216 12.352 35.1456 12.448C35.1696 12.536 35.1696 12.64 35.1456 12.76C35.1216 12.872 35.0776 12.972 35.0136 13.06C34.9496 13.156 34.8696 13.204 34.7736 13.204ZM27.4056 19.228C27.2536 19.228 27.0936 19.192 26.9256 19.12C26.7496 19.048 26.6016 18.924 26.4816 18.748C26.3616 18.572 26.3016 18.328 26.3016 18.016C26.3016 17.816 26.3376 17.592 26.4096 17.344C26.4816 17.104 26.5896 16.836 26.7336 16.54C26.8696 16.244 27.0416 15.928 27.2496 15.592C27.4576 15.256 27.6976 14.896 27.9696 14.512C28.2336 14.136 28.5256 13.74 28.8456 13.324C29.1656 12.916 29.5096 12.492 29.8776 12.052L31.4616 7.204C31.5176 7.044 31.5816 6.94 31.6536 6.892C31.7336 6.844 31.8496 6.82 32.0016 6.82C32.2496 6.82 32.4056 6.86 32.4696 6.94C32.5416 7.012 32.5496 7.128 32.4936 7.288L31.7496 9.556C32.2216 8.892 32.6496 8.356 33.0336 7.948C33.4176 7.54 33.7776 7.244 34.1136 7.06C34.4496 6.868 34.7776 6.772 35.0976 6.772C35.4976 6.772 35.8136 6.904 36.0456 7.168C36.2776 7.432 36.3936 7.804 36.3936 8.284C36.3936 8.732 36.3216 9.188 36.1776 9.652C36.0336 10.116 35.8296 10.56 35.5656 10.984C35.3096 11.408 35.0056 11.788 34.6536 12.124C34.3096 12.452 33.9296 12.716 33.5136 12.916C33.0976 13.108 32.6656 13.204 32.2176 13.204C31.9216 13.204 31.6496 13.156 31.4016 13.06C31.1616 12.964 30.9376 12.84 30.7296 12.688L29.3736 16.864C29.1736 17.48 28.9776 17.96 28.7856 18.304C28.5856 18.648 28.3736 18.888 28.1496 19.024C27.9256 19.16 27.6776 19.228 27.4056 19.228ZM27.3216 18.052C27.3216 18.148 27.3416 18.216 27.3816 18.256C27.4136 18.304 27.4656 18.328 27.5376 18.328C27.5936 18.328 27.6496 18.304 27.7056 18.256C27.7616 18.216 27.8216 18.136 27.8856 18.016C27.9416 17.896 28.0136 17.72 28.1016 17.488C28.1896 17.264 28.2936 16.964 28.4136 16.588L29.2776 13.924C29.0696 14.236 28.8776 14.536 28.7016 14.824C28.5176 15.12 28.3536 15.4 28.2096 15.664C28.0576 15.928 27.9296 16.176 27.8256 16.408C27.7136 16.648 27.6216 16.868 27.5496 17.068C27.4776 17.268 27.4216 17.448 27.3816 17.608C27.3416 17.776 27.3216 17.924 27.3216 18.052ZM31.0776 11.836C31.2696 11.98 31.4656 12.088 31.6656 12.16C31.8656 12.232 32.0736 12.268 32.2896 12.268C32.6256 12.268 32.9456 12.184 33.2496 12.016C33.5536 11.848 33.8296 11.628 34.0776 11.356C34.3336 11.076 34.5536 10.768 34.7376 10.432C34.9216 10.096 35.0616 9.756 35.1576 9.412C35.2616 9.06 35.3136 8.732 35.3136 8.428C35.3136 8.196 35.2656 8.024 35.1696 7.912C35.0816 7.792 34.9456 7.732 34.7616 7.732C34.6256 7.732 34.4776 7.772 34.3176 7.852C34.1656 7.932 33.9896 8.068 33.7896 8.26C33.5896 8.444 33.3576 8.696 33.0936 9.016C32.8376 9.328 32.5416 9.716 32.2056 10.18C31.8776 10.644 31.5016 11.196 31.0776 11.836ZM34.7831 13.204C34.6311 13.204 34.5311 13.156 34.4831 13.06C34.4271 12.972 34.4151 12.872 34.4471 12.76C34.4711 12.64 34.5311 12.536 34.6271 12.448C34.7231 12.352 34.8471 12.304 34.9991 12.304C35.3271 12.304 35.7191 12.212 36.1751 12.028C36.6231 11.844 37.1271 11.568 37.6871 11.2C37.7831 11.136 37.8711 11.124 37.9511 11.164C38.0311 11.204 38.0911 11.272 38.1311 11.368C38.1791 11.464 38.1951 11.564 38.1791 11.668C38.1631 11.772 38.1111 11.856 38.0231 11.92C37.5511 12.232 37.1151 12.484 36.7151 12.676C36.3071 12.86 35.9431 12.992 35.6231 13.072C35.2951 13.16 35.0151 13.204 34.7831 13.204ZM37.6991 11.272C37.8351 11.184 37.9711 11.096 38.1071 11.008C38.2431 10.912 38.3791 10.816 38.5151 10.72C38.8751 10.456 39.1991 10.184 39.4871 9.904C39.7751 9.624 40.0031 9.348 40.1711 9.076C40.3471 8.804 40.4351 8.552 40.4351 8.32C40.4351 8.136 40.3951 7.992 40.3151 7.888C40.2351 7.784 40.1151 7.732 39.9551 7.732C39.7071 7.732 39.4871 7.832 39.2951 8.032C39.1031 8.224 38.9391 8.468 38.8031 8.764C38.6751 9.06 38.5791 9.372 38.5151 9.7C38.4511 10.028 38.4191 10.324 38.4191 10.588C38.4191 10.812 38.4471 11.024 38.5031 11.224C38.5591 11.424 38.6431 11.6 38.7551 11.752C38.8671 11.904 39.0071 12.024 39.1751 12.112C39.3511 12.2 39.5551 12.244 39.7871 12.244C40.0351 12.244 40.2751 12.192 40.5071 12.088C40.7471 11.976 40.9751 11.832 41.1911 11.656C41.4151 11.472 41.6231 11.276 41.8151 11.068C41.9111 10.956 42.0231 10.916 42.1511 10.948C42.2791 10.98 42.3831 11.04 42.4631 11.128C42.5431 11.216 42.5871 11.308 42.5951 11.404C42.6111 11.5 42.5711 11.608 42.4751 11.728C42.1711 12.112 41.8551 12.412 41.5271 12.628C41.2071 12.836 40.8791 12.984 40.5431 13.072C40.2151 13.16 39.8871 13.204 39.5591 13.204C39.2631 13.204 38.9991 13.156 38.7671 13.06C38.5351 12.972 38.3311 12.848 38.1551 12.688C37.9791 12.528 37.8311 12.34 37.7111 12.124C37.5991 11.9 37.5111 11.66 37.4471 11.404C37.3911 11.148 37.3631 10.884 37.3631 10.612C37.3631 10.316 37.3951 9.996 37.4591 9.652C37.5231 9.308 37.6231 8.968 37.7591 8.632C37.9031 8.288 38.0871 7.976 38.3111 7.696C38.5351 7.416 38.8031 7.192 39.1151 7.024C39.4271 6.856 39.7911 6.772 40.2071 6.772C40.4471 6.772 40.6671 6.824 40.8671 6.928C41.0671 7.024 41.2231 7.168 41.3351 7.36C41.4551 7.544 41.5151 7.768 41.5151 8.032C41.5151 8.392 41.3991 8.772 41.1671 9.172C40.9431 9.564 40.6431 9.956 40.2671 10.348C39.8911 10.732 39.4711 11.092 39.0071 11.428C38.8551 11.532 38.6991 11.64 38.5391 11.752C38.3791 11.864 38.2151 11.968 38.0471 12.064L37.6991 11.272ZM43.8351 9.388C43.7151 9.388 43.6391 9.352 43.6071 9.28C43.5831 9.208 43.5991 9.084 43.6551 8.908C43.7191 8.724 43.7831 8.6 43.8471 8.536C43.9191 8.464 44.0151 8.428 44.1351 8.428H48.0351C48.1551 8.428 48.2311 8.464 48.2631 8.536C48.2951 8.6 48.2791 8.724 48.2151 8.908C48.1591 9.084 48.0951 9.208 48.0231 9.28C47.9511 9.352 47.8551 9.388 47.7351 9.388H43.8351ZM55.0779 13.204C54.8699 13.204 54.6819 13.192 54.5139 13.168C54.3539 13.144 54.1939 13.12 54.0339 13.096C53.8819 13.08 53.7179 13.072 53.5419 13.072C53.3739 13.08 53.1739 13.116 52.9419 13.18L53.0019 12.76C53.1699 12.688 53.3579 12.624 53.5659 12.568C53.7819 12.512 53.9979 12.464 54.2139 12.424C54.4299 12.384 54.6339 12.356 54.8259 12.34C55.0179 12.316 55.1779 12.304 55.3059 12.304C55.3779 12.304 55.4259 12.352 55.4499 12.448C55.4739 12.536 55.4739 12.64 55.4499 12.76C55.4259 12.872 55.3819 12.972 55.3179 13.06C55.2539 13.156 55.1739 13.204 55.0779 13.204ZM47.0979 13.204C46.9859 13.204 46.9059 13.156 46.8579 13.06C46.8099 12.972 46.7979 12.872 46.8219 12.76C46.8459 12.64 46.9059 12.536 47.0019 12.448C47.0979 12.352 47.2299 12.304 47.3979 12.304C47.5899 12.304 47.8339 12.212 48.1299 12.028C48.4179 11.836 48.7299 11.576 49.0659 11.248C49.4099 10.92 49.7499 10.544 50.0859 10.12C50.4299 9.688 50.7459 9.228 51.0339 8.74C51.3219 8.252 51.5579 7.76 51.7419 7.264L51.7659 7.204C51.8219 7.044 51.8859 6.94 51.9579 6.892C52.0379 6.844 52.1539 6.82 52.3059 6.82C52.5539 6.82 52.7099 6.86 52.7739 6.94C52.8459 7.012 52.8539 7.128 52.7979 7.288L52.0539 9.556C52.5259 8.892 52.9539 8.356 53.3379 7.948C53.7219 7.54 54.0819 7.244 54.4179 7.06C54.7539 6.868 55.0819 6.772 55.4019 6.772C55.8019 6.772 56.1179 6.904 56.3499 7.168C56.5819 7.432 56.6979 7.804 56.6979 8.284C56.6979 8.732 56.6259 9.188 56.4819 9.652C56.3379 10.116 56.1339 10.56 55.8699 10.984C55.6139 11.408 55.3099 11.788 54.9579 12.124C54.6139 12.452 54.2339 12.716 53.8179 12.916C53.4019 13.108 52.9699 13.204 52.5219 13.204C52.2259 13.204 51.9539 13.156 51.7059 13.06C51.4659 12.964 51.2419 12.84 51.0339 12.688L49.6779 16.864C49.4779 17.48 49.2779 17.96 49.0779 18.304C48.8859 18.648 48.6779 18.888 48.4539 19.024C48.2299 19.16 47.9819 19.228 47.7099 19.228C47.5579 19.228 47.3979 19.192 47.2299 19.12C47.0539 19.048 46.9059 18.924 46.7859 18.748C46.6659 18.572 46.6059 18.328 46.6059 18.016C46.6059 17.816 46.6419 17.592 46.7139 17.344C46.7859 17.104 46.8939 16.836 47.0379 16.54C47.1739 16.244 47.3459 15.928 47.5539 15.592C47.7619 15.256 48.0019 14.896 48.2739 14.512C48.5379 14.136 48.8299 13.74 49.1499 13.324C49.4699 12.916 49.8139 12.492 50.1819 12.052L50.6619 10.588C50.3819 10.98 50.0899 11.336 49.7859 11.656C49.4819 11.976 49.1779 12.252 48.8739 12.484C48.5699 12.716 48.2699 12.892 47.9739 13.012C47.6699 13.14 47.3779 13.204 47.0979 13.204ZM47.6259 18.052C47.6259 18.148 47.6459 18.216 47.6859 18.256C47.7179 18.304 47.7699 18.328 47.8419 18.328C47.8979 18.328 47.9539 18.304 48.0099 18.256C48.0659 18.216 48.1259 18.136 48.1899 18.016C48.2459 17.896 48.3179 17.72 48.4059 17.488C48.4939 17.264 48.5979 16.964 48.7179 16.588L49.5819 13.924C49.3739 14.236 49.1779 14.536 48.9939 14.824C48.8179 15.12 48.6579 15.4 48.5139 15.664C48.3619 15.928 48.2339 16.176 48.1299 16.408C48.0179 16.648 47.9259 16.868 47.8539 17.068C47.7819 17.268 47.7259 17.448 47.6859 17.608C47.6459 17.776 47.6259 17.924 47.6259 18.052ZM51.3819 11.836C51.5739 11.98 51.7699 12.088 51.9699 12.16C52.1699 12.232 52.3779 12.268 52.5939 12.268C52.9299 12.268 53.2499 12.184 53.5539 12.016C53.8579 11.848 54.1339 11.628 54.3819 11.356C54.6379 11.076 54.8579 10.768 55.0419 10.432C55.2259 10.096 55.3659 9.756 55.4619 9.412C55.5659 9.06 55.6179 8.732 55.6179 8.428C55.6179 8.196 55.5699 8.024 55.4739 7.912C55.3859 7.792 55.2499 7.732 55.0659 7.732C54.9299 7.732 54.7819 7.772 54.6219 7.852C54.4699 7.932 54.2939 8.068 54.0939 8.26C53.8939 8.444 53.6619 8.696 53.3979 9.016C53.1419 9.328 52.8459 9.716 52.5099 10.18C52.1819 10.644 51.8059 11.196 51.3819 11.836ZM55.08 13.204C54.928 13.204 54.828 13.156 54.78 13.06C54.732 12.972 54.724 12.872 54.756 12.76C54.78 12.64 54.844 12.536 54.948 12.448C55.044 12.352 55.168 12.304 55.32 12.304C55.544 12.304 55.828 12.208 56.172 12.016C56.516 11.824 56.896 11.56 57.312 11.224C57.728 10.88 58.16 10.484 58.608 10.036C59.064 9.588 59.512 9.104 59.952 8.584C60.4 8.056 60.82 7.516 61.212 6.964C61.612 6.412 61.964 5.864 62.268 5.32C62.572 4.776 62.812 4.256 62.988 3.76C63.164 3.256 63.252 2.8 63.252 2.392C63.252 2.24 63.3 2.128 63.396 2.056C63.5 1.976 63.62 1.936 63.756 1.936C63.892 1.936 64.008 1.976 64.104 2.056C64.208 2.128 64.26 2.24 64.26 2.392C64.26 2.776 64.18 3.204 64.02 3.676C63.868 4.14 63.652 4.632 63.372 5.152C63.1 5.672 62.78 6.2 62.412 6.736C62.044 7.264 61.644 7.792 61.212 8.32C60.788 8.848 60.348 9.352 59.892 9.832C59.436 10.312 58.98 10.76 58.524 11.176C58.068 11.584 57.628 11.94 57.204 12.244C56.78 12.548 56.388 12.784 56.028 12.952C55.668 13.12 55.352 13.204 55.08 13.204ZM59.796 13.204C59.348 13.204 58.992 13.068 58.728 12.796C58.472 12.516 58.328 12.128 58.296 11.632C58.264 11.128 58.356 10.54 58.572 9.868L60.684 3.448C60.98 2.512 61.308 1.832 61.668 1.408C62.036 0.983999 62.476 0.771999 62.988 0.771999C63.244 0.771999 63.464 0.839999 63.648 0.975999C63.84 1.112 63.988 1.3 64.092 1.54C64.204 1.78 64.26 2.064 64.26 2.392C64.26 2.544 64.208 2.656 64.104 2.728C64.008 2.8 63.892 2.836 63.756 2.836C63.62 2.836 63.5 2.8 63.396 2.728C63.3 2.656 63.252 2.544 63.252 2.392C63.252 2.256 63.24 2.14 63.216 2.044C63.192 1.948 63.152 1.872 63.096 1.816C63.04 1.76 62.956 1.732 62.844 1.732C62.716 1.732 62.592 1.788 62.472 1.9C62.36 2.004 62.24 2.2 62.112 2.488C61.984 2.768 61.828 3.168 61.644 3.688L59.556 10.072C59.396 10.56 59.308 10.972 59.292 11.308C59.284 11.644 59.344 11.896 59.472 12.064C59.6 12.224 59.784 12.304 60.024 12.304C60.136 12.304 60.22 12.352 60.276 12.448C60.332 12.536 60.352 12.64 60.336 12.76C60.32 12.872 60.268 12.972 60.18 13.06C60.092 13.156 59.964 13.204 59.796 13.204ZM59.8026 13.204C59.6906 13.204 59.6066 13.156 59.5506 13.06C59.4946 12.972 59.4746 12.872 59.4906 12.76C59.4986 12.64 59.5466 12.536 59.6346 12.448C59.7226 12.352 59.8506 12.304 60.0186 12.304C60.2266 12.304 60.4466 12.228 60.6786 12.076C60.9106 11.924 61.1506 11.712 61.3986 11.44C61.6386 11.168 61.8866 10.848 62.1426 10.48C62.3986 10.112 62.6586 9.712 62.9226 9.28C62.9866 9.176 63.0746 9.132 63.1866 9.148C63.2986 9.164 63.3906 9.216 63.4626 9.304C63.5346 9.384 63.5386 9.476 63.4746 9.58C63.1306 10.18 62.8026 10.708 62.4906 11.164C62.1866 11.62 61.8906 12 61.6026 12.304C61.3066 12.6 61.0146 12.824 60.7266 12.976C60.4306 13.128 60.1226 13.204 59.8026 13.204ZM63.7266 13.204C63.4546 13.204 63.2186 13.132 63.0186 12.988C62.8186 12.844 62.6626 12.64 62.5506 12.376C62.4386 12.112 62.3826 11.8 62.3826 11.44C62.3826 11.072 62.4386 10.676 62.5506 10.252C62.6626 9.828 62.8306 9.412 63.0546 9.004C63.2786 8.596 63.5506 8.224 63.8706 7.888C64.1906 7.552 64.5586 7.284 64.9746 7.084C65.3986 6.876 65.8626 6.772 66.3666 6.772C66.6706 6.772 66.9986 6.828 67.3506 6.94C67.7026 7.044 68.0186 7.192 68.2986 7.384L68.0826 8.212C67.6906 8.004 67.3426 7.872 67.0386 7.816C66.7346 7.752 66.4546 7.72 66.1986 7.72C65.8546 7.72 65.5386 7.8 65.2506 7.96C64.9706 8.12 64.7186 8.332 64.4946 8.596C64.2786 8.852 64.0946 9.14 63.9426 9.46C63.7906 9.772 63.6746 10.084 63.5946 10.396C63.5146 10.708 63.4746 10.992 63.4746 11.248C63.4746 11.448 63.4986 11.624 63.5466 11.776C63.5946 11.928 63.6626 12.044 63.7506 12.124C63.8466 12.204 63.9546 12.244 64.0746 12.244C64.3706 12.244 64.7066 12.084 65.0826 11.764C65.4586 11.436 65.8586 10.956 66.2826 10.324C66.7146 9.692 67.1546 8.924 67.6026 8.02L68.0466 8.464C67.5266 9.536 67.0106 10.424 66.4986 11.128C65.9946 11.824 65.5106 12.344 65.0466 12.688C64.5826 13.032 64.1426 13.204 63.7266 13.204ZM67.4226 13.204C67.0626 13.204 66.7946 13.136 66.6186 13C66.4506 12.872 66.3426 12.708 66.2946 12.508C66.2546 12.3 66.2546 12.084 66.2946 11.86C66.3346 11.628 66.3906 11.416 66.4626 11.224L67.8066 7.204C67.8626 7.044 67.9266 6.94 67.9986 6.892C68.0786 6.844 68.1946 6.82 68.3466 6.82C68.5946 6.82 68.7506 6.86 68.8146 6.94C68.8866 7.012 68.8946 7.128 68.8386 7.288L67.5186 11.212C67.3826 11.628 67.3186 11.916 67.3266 12.076C67.3426 12.228 67.4426 12.304 67.6266 12.304C67.7386 12.304 67.8226 12.352 67.8786 12.448C67.9346 12.536 67.9546 12.64 67.9386 12.76C67.9306 12.872 67.8826 12.972 67.7946 13.06C67.7146 13.156 67.5906 13.204 67.4226 13.204ZM67.4438 13.204C67.3158 13.204 67.2358 13.156 67.2038 13.06C67.1638 12.972 67.1638 12.872 67.2038 12.76C67.2358 12.64 67.2918 12.536 67.3718 12.448C67.4518 12.352 67.5398 12.304 67.6358 12.304C67.7798 12.304 67.9358 12.248 68.1038 12.136C68.2638 12.024 68.4318 11.86 68.6078 11.644C68.7758 11.428 68.9558 11.168 69.1478 10.864C69.3318 10.552 69.5238 10.2 69.7238 9.808C70.0838 9.12 70.4038 8.572 70.6838 8.164C70.9718 7.756 71.2358 7.452 71.4758 7.252C71.7158 7.052 71.9438 6.924 72.1598 6.868C72.3838 6.804 72.6078 6.772 72.8318 6.772C72.9118 6.772 72.9638 6.82 72.9878 6.916C73.0118 7.004 73.0078 7.108 72.9758 7.228C72.9438 7.34 72.8878 7.444 72.8078 7.54C72.7358 7.628 72.6398 7.672 72.5198 7.672C72.4318 7.672 72.3278 7.696 72.2078 7.744C72.0958 7.784 71.9638 7.88 71.8118 8.032C71.6678 8.176 71.4958 8.396 71.2958 8.692C71.1038 8.988 70.8798 9.384 70.6238 9.88C70.2478 10.632 69.9038 11.232 69.5918 11.68C69.2798 12.12 68.9958 12.452 68.7398 12.676C68.4838 12.892 68.2518 13.032 68.0438 13.096C67.8278 13.168 67.6278 13.204 67.4438 13.204ZM75.4718 13.204C75.1198 13.204 74.8558 13.136 74.6798 13C74.5118 12.872 74.4078 12.708 74.3678 12.508C74.3278 12.3 74.3278 12.084 74.3678 11.86C74.4078 11.628 74.4598 11.416 74.5238 11.224L75.3398 8.872C75.4118 8.664 75.4558 8.476 75.4718 8.308C75.4958 8.132 75.4678 7.992 75.3878 7.888C75.3158 7.784 75.1678 7.732 74.9438 7.732C74.6798 7.732 74.3838 7.848 74.0558 8.08C73.7358 8.312 73.4038 8.636 73.0598 9.052C72.7238 9.468 72.3878 9.964 72.0518 10.54C71.7158 11.108 71.4038 11.736 71.1158 12.424L70.9718 12.868C70.9398 12.972 70.8798 13.048 70.7918 13.096C70.7118 13.152 70.5798 13.18 70.3958 13.18C70.2678 13.18 70.1478 13.152 70.0358 13.096C69.9318 13.04 69.9038 12.936 69.9518 12.784L71.5118 7.96C71.5358 7.88 71.5318 7.812 71.4998 7.756C71.4758 7.7 71.4158 7.672 71.3198 7.672C71.2238 7.672 71.1558 7.628 71.1158 7.54C71.0838 7.444 71.0798 7.34 71.1038 7.228C71.1278 7.108 71.1838 7.004 71.2718 6.916C71.3598 6.82 71.4758 6.772 71.6198 6.772C71.9158 6.772 72.1318 6.828 72.2678 6.94C72.4118 7.044 72.4998 7.184 72.5318 7.36C72.5638 7.528 72.5638 7.708 72.5318 7.9C72.4998 8.092 72.4598 8.268 72.4118 8.428L72.1718 9.148C72.4198 8.764 72.6718 8.428 72.9278 8.14C73.1918 7.844 73.4558 7.596 73.7198 7.396C73.9838 7.188 74.2518 7.032 74.5238 6.928C74.7958 6.824 75.0678 6.772 75.3398 6.772C75.7078 6.772 75.9918 6.864 76.1918 7.048C76.3918 7.224 76.5038 7.488 76.5278 7.84C76.5518 8.192 76.4758 8.628 76.2998 9.148L75.5918 11.212C75.4478 11.628 75.3798 11.916 75.3878 12.076C75.4038 12.228 75.5078 12.304 75.6998 12.304C75.8118 12.304 75.8918 12.352 75.9398 12.448C75.9958 12.536 76.0158 12.64 75.9998 12.76C75.9918 12.872 75.9438 12.972 75.8558 13.06C75.7678 13.156 75.6398 13.204 75.4718 13.204ZM75.4706 13.204C75.3586 13.204 75.2746 13.156 75.2186 13.06C75.1626 12.972 75.1426 12.872 75.1586 12.76C75.1666 12.64 75.2146 12.536 75.3026 12.448C75.3906 12.352 75.5186 12.304 75.6866 12.304C75.8786 12.304 76.1026 12.228 76.3586 12.076C76.6146 11.924 76.9106 11.68 77.2466 11.344C77.5746 11 77.9466 10.548 78.3626 9.988C78.7866 9.42 79.2546 8.724 79.7666 7.9C79.8386 7.788 79.9306 7.74 80.0426 7.756C80.1626 7.772 80.2546 7.824 80.3186 7.912C80.3906 8 80.3946 8.096 80.3306 8.2C79.7306 9.208 79.1986 10.036 78.7346 10.684C78.2706 11.332 77.8506 11.84 77.4746 12.208C77.0986 12.576 76.7506 12.836 76.4306 12.988C76.1026 13.132 75.7826 13.204 75.4706 13.204ZM80.0666 13.204C79.6906 13.204 79.3826 13.12 79.1426 12.952C78.9106 12.776 78.7426 12.548 78.6386 12.268C78.5346 11.98 78.4906 11.66 78.5066 11.308C78.5226 10.956 78.5906 10.6 78.7106 10.24L79.4666 7.96H78.5546C78.4666 7.96 78.4066 7.92 78.3746 7.84C78.3426 7.76 78.3466 7.64 78.3866 7.48C78.4346 7.32 78.4986 7.2 78.5786 7.12C78.6586 7.04 78.7426 7 78.8306 7H79.7906L80.5706 4.624C80.6186 4.464 80.6786 4.36 80.7506 4.312C80.8306 4.264 80.9506 4.24 81.1106 4.24C81.3666 4.24 81.5266 4.28 81.5906 4.36C81.6546 4.432 81.6586 4.548 81.6026 4.708L80.8346 7H82.3466C82.4346 7 82.4946 7.04 82.5266 7.12C82.5666 7.192 82.5626 7.312 82.5146 7.48C82.4746 7.632 82.4146 7.752 82.3346 7.84C82.2546 7.92 82.1706 7.96 82.0826 7.96H80.5226L79.7306 10.348C79.6186 10.684 79.5546 10.976 79.5386 11.224C79.5306 11.472 79.5546 11.676 79.6106 11.836C79.6746 11.996 79.7666 12.116 79.8866 12.196C80.0066 12.268 80.1426 12.304 80.2946 12.304C80.4066 12.304 80.4906 12.352 80.5466 12.448C80.6026 12.536 80.6226 12.64 80.6066 12.76C80.5906 12.872 80.5386 12.972 80.4506 13.06C80.3626 13.156 80.2346 13.204 80.0666 13.204ZM80.1112 13.204C79.9992 13.204 79.9152 13.156 79.8592 13.06C79.8032 12.972 79.7832 12.872 79.7992 12.76C79.8072 12.64 79.8552 12.536 79.9432 12.448C80.0312 12.352 80.1592 12.304 80.3272 12.304C80.5352 12.304 80.7552 12.228 80.9872 12.076C81.2192 11.924 81.4592 11.712 81.7072 11.44C81.9472 11.168 82.1952 10.848 82.4512 10.48C82.7072 10.112 82.9672 9.712 83.2312 9.28C83.2952 9.176 83.3832 9.132 83.4952 9.148C83.6072 9.164 83.6992 9.216 83.7712 9.304C83.8432 9.384 83.8472 9.476 83.7832 9.58C83.4392 10.18 83.1112 10.708 82.7992 11.164C82.4952 11.62 82.1992 12 81.9112 12.304C81.6152 12.6 81.3232 12.824 81.0352 12.976C80.7392 13.128 80.4312 13.204 80.1112 13.204ZM84.047 13.204C83.775 13.204 83.539 13.132 83.339 12.988C83.139 12.844 82.983 12.64 82.871 12.376C82.759 12.112 82.703 11.8 82.703 11.44C82.703 11.072 82.759 10.676 82.871 10.252C82.983 9.828 83.151 9.412 83.375 9.004C83.599 8.596 83.871 8.224 84.191 7.888C84.511 7.552 84.879 7.284 85.295 7.084C85.719 6.876 86.183 6.772 86.687 6.772C86.991 6.772 87.319 6.828 87.671 6.94C88.023 7.044 88.339 7.192 88.619 7.384L88.403 8.212C88.011 8.004 87.663 7.872 87.359 7.816C87.055 7.752 86.775 7.72 86.519 7.72C86.175 7.72 85.859 7.8 85.571 7.96C85.291 8.12 85.039 8.332 84.815 8.596C84.599 8.852 84.415 9.14 84.263 9.46C84.111 9.772 83.995 10.084 83.915 10.396C83.835 10.708 83.795 10.992 83.795 11.248C83.795 11.448 83.819 11.624 83.867 11.776C83.915 11.928 83.983 12.044 84.071 12.124C84.167 12.204 84.275 12.244 84.395 12.244C84.691 12.244 85.027 12.084 85.403 11.764C85.779 11.436 86.179 10.956 86.603 10.324C87.035 9.692 87.475 8.924 87.923 8.02L88.367 8.464C87.847 9.536 87.331 10.424 86.819 11.128C86.315 11.824 85.831 12.344 85.367 12.688C84.903 13.032 84.463 13.204 84.047 13.204ZM87.743 13.204C87.383 13.204 87.115 13.136 86.939 13C86.771 12.872 86.663 12.708 86.615 12.508C86.575 12.3 86.575 12.084 86.615 11.86C86.655 11.628 86.711 11.416 86.783 11.224L88.127 7.204C88.183 7.044 88.247 6.94 88.319 6.892C88.399 6.844 88.515 6.82 88.667 6.82C88.915 6.82 89.071 6.86 89.135 6.94C89.207 7.012 89.215 7.128 89.159 7.288L87.839 11.212C87.703 11.628 87.639 11.916 87.647 12.076C87.663 12.228 87.763 12.304 87.947 12.304C88.059 12.304 88.143 12.352 88.199 12.448C88.255 12.536 88.275 12.64 88.259 12.76C88.251 12.872 88.203 12.972 88.115 13.06C88.035 13.156 87.911 13.204 87.743 13.204ZM87.7401 13.204C87.6281 13.204 87.5441 13.156 87.4881 13.06C87.4321 12.972 87.4121 12.872 87.4281 12.76C87.4361 12.64 87.4841 12.536 87.5721 12.448C87.6601 12.352 87.7881 12.304 87.9561 12.304C88.1481 12.304 88.3681 12.208 88.6161 12.016C88.8561 11.824 89.1401 11.524 89.4681 11.116C89.7961 10.7 90.1841 10.16 90.6321 9.496C91.0801 8.824 91.6041 8.012 92.2041 7.06C92.2761 6.948 92.3681 6.9 92.4801 6.916C92.6001 6.932 92.6961 6.984 92.7681 7.072C92.8401 7.16 92.8441 7.256 92.7801 7.36C92.1001 8.512 91.5121 9.468 91.0161 10.228C90.5281 10.98 90.1001 11.576 89.7321 12.016C89.3641 12.448 89.0241 12.756 88.7121 12.94C88.3921 13.116 88.0681 13.204 87.7401 13.204ZM91.7001 13.204C91.3481 13.204 91.0841 13.14 90.9081 13.012C90.7401 12.884 90.6361 12.72 90.5961 12.52C90.5561 12.312 90.5561 12.096 90.5961 11.872C90.6361 11.64 90.6881 11.424 90.7521 11.224L92.0721 7.204C92.1281 7.044 92.1921 6.94 92.2641 6.892C92.3441 6.844 92.4601 6.82 92.6121 6.82C92.8601 6.82 93.0161 6.86 93.0801 6.94C93.1521 7.012 93.1601 7.128 93.1041 7.288L91.8201 11.212C91.6761 11.636 91.6081 11.924 91.6161 12.076C91.6321 12.228 91.7321 12.304 91.9161 12.304C92.0281 12.304 92.1121 12.352 92.1681 12.448C92.2241 12.536 92.2441 12.64 92.2281 12.76C92.2201 12.872 92.1721 12.972 92.0841 13.06C91.9961 13.156 91.8681 13.204 91.7001 13.204ZM93.3561 4.972C93.1961 4.972 93.0601 4.92 92.9481 4.816C92.8361 4.712 92.7801 4.56 92.7801 4.36C92.7801 4.144 92.8481 3.94 92.9841 3.748C93.1281 3.556 93.3481 3.46 93.6441 3.46C93.8121 3.46 93.9521 3.512 94.0641 3.616C94.1761 3.712 94.2321 3.864 94.2321 4.072C94.2321 4.288 94.1601 4.492 94.0161 4.684C93.8801 4.876 93.6601 4.972 93.3561 4.972ZM91.6665 13.204C91.5385 13.204 91.4585 13.156 91.4265 13.06C91.3865 12.972 91.3865 12.872 91.4265 12.76C91.4585 12.64 91.5145 12.536 91.5945 12.448C91.6745 12.352 91.7625 12.304 91.8585 12.304C92.0025 12.304 92.1585 12.248 92.3265 12.136C92.4865 12.024 92.6545 11.86 92.8305 11.644C92.9985 11.428 93.1785 11.168 93.3705 10.864C93.5545 10.552 93.7465 10.2 93.9465 9.808C94.3065 9.12 94.6265 8.572 94.9065 8.164C95.1945 7.756 95.4585 7.452 95.6985 7.252C95.9385 7.052 96.1665 6.924 96.3825 6.868C96.6065 6.804 96.8305 6.772 97.0545 6.772C97.1345 6.772 97.1865 6.82 97.2105 6.916C97.2345 7.004 97.2305 7.108 97.1985 7.228C97.1665 7.34 97.1105 7.444 97.0305 7.54C96.9585 7.628 96.8625 7.672 96.7425 7.672C96.6545 7.672 96.5505 7.696 96.4305 7.744C96.3185 7.784 96.1865 7.88 96.0345 8.032C95.8905 8.176 95.7185 8.396 95.5185 8.692C95.3265 8.988 95.1025 9.384 94.8465 9.88C94.4705 10.632 94.1265 11.232 93.8145 11.68C93.5025 12.12 93.2185 12.452 92.9625 12.676C92.7065 12.892 92.4745 13.032 92.2665 13.096C92.0505 13.168 91.8505 13.204 91.6665 13.204ZM94.6185 13.18C94.4905 13.18 94.3705 13.152 94.2585 13.096C94.1545 13.04 94.1265 12.936 94.1745 12.784L95.7345 7.96C95.7585 7.88 95.7545 7.812 95.7225 7.756C95.6985 7.7 95.6385 7.672 95.5425 7.672C95.4465 7.672 95.3785 7.628 95.3385 7.54C95.3065 7.444 95.3025 7.34 95.3265 7.228C95.3505 7.108 95.4065 7.004 95.4945 6.916C95.5825 6.82 95.6985 6.772 95.8425 6.772C96.1385 6.772 96.3545 6.828 96.4905 6.94C96.6345 7.044 96.7225 7.184 96.7545 7.36C96.7865 7.528 96.7865 7.708 96.7545 7.9C96.7225 8.092 96.6825 8.268 96.6345 8.428L96.3945 9.148C96.6425 8.764 96.8945 8.428 97.1505 8.14C97.4145 7.844 97.6785 7.596 97.9425 7.396C98.2065 7.188 98.4745 7.032 98.7465 6.928C99.0185 6.824 99.2905 6.772 99.5625 6.772C99.9305 6.772 100.214 6.864 100.414 7.048C100.614 7.224 100.726 7.488 100.75 7.84C100.774 8.192 100.698 8.628 100.522 9.148L99.6225 11.752C99.5745 11.904 99.5465 12.016 99.5385 12.088C99.5385 12.16 99.5545 12.208 99.5865 12.232C99.6185 12.256 99.6545 12.268 99.6945 12.268C99.7745 12.268 99.8545 12.244 99.9345 12.196C100.022 12.14 100.114 12.064 100.21 11.968C100.314 11.864 100.422 11.744 100.534 11.608C100.598 11.528 100.662 11.484 100.726 11.476C100.79 11.46 100.866 11.484 100.954 11.548C101.082 11.628 101.158 11.708 101.182 11.788C101.214 11.868 101.206 11.948 101.158 12.028C101.086 12.148 100.97 12.3 100.81 12.484C100.658 12.668 100.466 12.832 100.234 12.976C100.002 13.112 99.7425 13.18 99.4545 13.18C99.1585 13.18 98.9385 13.116 98.7945 12.988C98.6585 12.852 98.5785 12.684 98.5545 12.484C98.5305 12.284 98.5385 12.072 98.5785 11.848C98.6265 11.624 98.6825 11.416 98.7465 11.224L99.5625 8.872C99.6345 8.664 99.6785 8.476 99.6945 8.308C99.7185 8.132 99.6905 7.992 99.6105 7.888C99.5385 7.784 99.3905 7.732 99.1665 7.732C98.9025 7.732 98.6065 7.848 98.2785 8.08C97.9585 8.312 97.6265 8.636 97.2825 9.052C96.9465 9.468 96.6105 9.964 96.2745 10.54C95.9385 11.108 95.6265 11.736 95.3385 12.424L95.1945 12.868C95.1625 12.972 95.1025 13.048 95.0145 13.096C94.9345 13.152 94.8025 13.18 94.6185 13.18Z" fill="black"/>
</svg>
